<svg width="14" height="14" viewBox="0 0 14 14" fill="none" xmlns="http://www.w3.org/2000/svg">
<path d="M10.9083 5.65833L7.40829 9.15833C7.29163 9.275 7.17496 9.33333 6.99996 9.33333C6.82496 9.33333 6.70829 9.275 6.59163 9.15833L3.09163 5.65833C2.85829 5.425 2.85829 5.075 3.09163 4.84166C3.32496 4.60833 3.67496 4.60833 3.90829 4.84166L6.99996 7.93333L10.0916 4.84166C10.325 4.60833 10.675 4.60833 10.9083 4.84166C11.1416 5.075 11.1416 5.425 10.9083 5.65833Z" fill="black"/>
<mask id="mask0" mask-type="alpha" maskUnits="userSpaceOnUse" x="2" y="4" width="10" height="6">
<path d="M10.9083 5.65833L7.40829 9.15833C7.29163 9.275 7.17496 9.33333 6.99996 9.33333C6.82496 9.33333 6.70829 9.275 6.59163 9.15833L3.09163 5.65833C2.85829 5.425 2.85829 5.075 3.09163 4.84166C3.32496 4.60833 3.67496 4.60833 3.90829 4.84166L6.99996 7.93333L10.0916 4.84166C10.325 4.60833 10.675 4.60833 10.9083 4.84166C11.1416 5.075 11.1416 5.425 10.9083 5.65833Z" fill="white"/>
</mask>
<g mask="url(#mask0)">
<rect width="14" height="14" fill="white"/>
</g>
</svg>
