<svg width="20" height="20" viewBox="0 0 20 20" fill="none" xmlns="http://www.w3.org/2000/svg">
<path d="M13.0834 10.5833L8.08335 15.5833C7.91669 15.75 7.75002 15.8333 7.50002 15.8333C7.25002 15.8333 7.08335 15.75 6.91669 15.5833C6.58335 15.25 6.58335 14.75 6.91669 14.4167L11.3334 10L6.91669 5.58333C6.58335 5.25 6.58335 4.75 6.91669 4.41667C7.25002 4.08333 7.75002 4.08333 8.08335 4.41667L13.0834 9.41667C13.4167 9.75 13.4167 10.25 13.0834 10.5833Z" fill="black"/>
<mask id="mask0" mask-type="alpha" maskUnits="userSpaceOnUse" x="6" y="4" width="8" height="12">
<path d="M13.0834 10.5833L8.08335 15.5833C7.91669 15.75 7.75002 15.8333 7.50002 15.8333C7.25002 15.8333 7.08335 15.75 6.91669 15.5833C6.58335 15.25 6.58335 14.75 6.91669 14.4167L11.3334 10L6.91669 5.58333C6.58335 5.25 6.58335 4.75 6.91669 4.41667C7.25002 4.08333 7.75002 4.08333 8.08335 4.41667L13.0834 9.41667C13.4167 9.75 13.4167 10.25 13.0834 10.5833Z" fill="white"/>
</mask>
<g mask="url(#mask0)">
<path fill-rule="evenodd" clip-rule="evenodd" d="M0 0H20V20H0V0Z" fill="#002868"/>
</g>
</svg>
