<svg width="300" height="35" viewBox="0 0 300 35" fill="none" xmlns="http://www.w3.org/2000/svg">
<rect y="34" width="300" height="1" fill="#EEEEEE"/>
<path d="M105.078 16V6.872H110.79V8.608H107.136V10.442H110.244V12.164H107.136V14.264H110.93V16H105.078ZM113.863 18.478C113.882 18.338 113.896 18.2027 113.905 18.072C113.924 17.9413 113.933 17.806 113.933 17.666C113.943 17.526 113.947 17.3673 113.947 17.19C113.957 17.022 113.961 16.8167 113.961 16.574C113.961 16.1353 113.887 15.6127 113.737 15.006C113.597 14.39 113.406 13.7507 113.163 13.088C112.921 12.416 112.636 11.7533 112.309 11.1C111.983 10.4467 111.633 9.85867 111.259 9.336L113.359 8.888C113.509 9.12133 113.667 9.41067 113.835 9.756C114.003 10.1013 114.167 10.484 114.325 10.904C114.493 11.3147 114.652 11.758 114.801 12.234C114.951 12.7007 115.091 13.1813 115.221 13.676H115.277C115.968 12.2573 116.36 10.7173 116.453 9.056H118.497C118.395 9.644 118.278 10.1947 118.147 10.708C118.026 11.2213 117.867 11.744 117.671 12.276C117.475 12.7987 117.228 13.3447 116.929 13.914C116.631 14.4833 116.257 15.118 115.809 15.818C115.884 16.2567 115.931 16.7093 115.949 17.176C115.977 17.652 115.991 18.086 115.991 18.478H113.863ZM120.768 18.478C120.786 18.338 120.8 18.2027 120.81 18.072C120.828 17.9413 120.838 17.806 120.838 17.666C120.847 17.526 120.852 17.3673 120.852 17.19C120.861 17.022 120.866 16.8167 120.866 16.574C120.866 16.1353 120.791 15.6127 120.642 15.006C120.502 14.39 120.31 13.7507 120.068 13.088C119.825 12.416 119.54 11.7533 119.214 11.1C118.887 10.4467 118.537 9.85867 118.164 9.336L120.264 8.888C120.413 9.12133 120.572 9.41067 120.74 9.756C120.908 10.1013 121.071 10.484 121.23 10.904C121.398 11.3147 121.556 11.758 121.706 12.234C121.855 12.7007 121.995 13.1813 122.126 13.676H122.182C122.872 12.2573 123.264 10.7173 123.358 9.056H125.402C125.299 9.644 125.182 10.1947 125.052 10.708C124.93 11.2213 124.772 11.744 124.576 12.276C124.38 12.7987 124.132 13.3447 123.834 13.914C123.535 14.4833 123.162 15.118 122.714 15.818C122.788 16.2567 122.835 16.7093 122.854 17.176C122.882 17.652 122.896 18.086 122.896 18.478H120.768ZM126.36 18.478V12.682C126.36 12.0287 126.444 11.464 126.612 10.988C126.78 10.5027 127.013 10.106 127.312 9.798C127.611 9.49 127.961 9.26133 128.362 9.112C128.763 8.96267 129.202 8.888 129.678 8.888C130.695 8.888 131.489 9.196 132.058 9.812C132.627 10.428 132.912 11.296 132.912 12.416C132.912 13.0133 132.828 13.5453 132.66 14.012C132.501 14.4693 132.287 14.8613 132.016 15.188C131.755 15.5053 131.451 15.748 131.106 15.916C130.761 16.084 130.406 16.168 130.042 16.168C129.743 16.168 129.44 16.112 129.132 16C128.824 15.8973 128.544 15.6967 128.292 15.398C128.32 15.93 128.343 16.448 128.362 16.952C128.39 17.456 128.413 17.9647 128.432 18.478H126.36ZM129.552 14.488C129.897 14.488 130.191 14.3293 130.434 14.012C130.686 13.6853 130.812 13.1627 130.812 12.444C130.812 11.1933 130.411 10.568 129.608 10.568C129.216 10.568 128.899 10.7407 128.656 11.086C128.413 11.4313 128.292 11.898 128.292 12.486V13.928C128.507 14.152 128.717 14.3013 128.922 14.376C129.137 14.4507 129.347 14.488 129.552 14.488ZM136.767 16.168C136.347 16.168 135.964 16.0887 135.619 15.93C135.283 15.762 134.989 15.524 134.737 15.216C134.494 14.908 134.307 14.53 134.177 14.082C134.046 13.634 133.981 13.1253 133.981 12.556C133.981 11.9867 134.065 11.4733 134.233 11.016C134.401 10.5587 134.625 10.176 134.905 9.868C135.194 9.55067 135.521 9.308 135.885 9.14C136.258 8.972 136.645 8.888 137.047 8.888C137.439 8.888 137.798 8.99533 138.125 9.21C138.461 9.41533 138.741 9.77 138.965 10.274H139.021L139.245 9.056H141.275C141.181 9.45733 141.083 9.88667 140.981 10.344C140.878 10.792 140.78 11.2353 140.687 11.674C140.603 12.1033 140.528 12.514 140.463 12.906C140.407 13.2887 140.379 13.6107 140.379 13.872C140.379 14.1053 140.439 14.2687 140.561 14.362C140.691 14.4553 140.855 14.502 141.051 14.502C141.191 14.502 141.34 14.474 141.499 14.418L141.751 15.93C141.62 15.9953 141.452 16.0513 141.247 16.098C141.051 16.1447 140.813 16.168 140.533 16.168C140.038 16.168 139.646 16.084 139.357 15.916C139.077 15.7387 138.871 15.44 138.741 15.02H138.699C138.232 15.7853 137.588 16.168 136.767 16.168ZM137.257 14.488C137.406 14.488 137.555 14.4507 137.705 14.376C137.854 14.292 137.985 14.1847 138.097 14.054C138.218 13.914 138.316 13.7553 138.391 13.578C138.465 13.3913 138.507 13.1953 138.517 12.99L138.615 11.786C138.325 10.974 137.91 10.568 137.369 10.568C137.21 10.568 137.051 10.6053 136.893 10.68C136.743 10.7547 136.608 10.876 136.487 11.044C136.375 11.2027 136.281 11.408 136.207 11.66C136.132 11.9027 136.095 12.1967 136.095 12.542C136.095 13.214 136.197 13.7087 136.403 14.026C136.617 14.334 136.902 14.488 137.257 14.488ZM144.421 12.528C144.421 13.172 144.565 13.6667 144.855 14.012C145.144 14.3573 145.536 14.544 146.031 14.572V10.484C145.536 10.512 145.144 10.6987 144.855 11.044C144.565 11.3893 144.421 11.884 144.421 12.528ZM149.517 12.528C149.517 11.884 149.372 11.3893 149.083 11.044C148.803 10.6987 148.411 10.512 147.907 10.484V14.572C148.401 14.544 148.793 14.3573 149.083 14.012C149.372 13.6667 149.517 13.172 149.517 12.528ZM146.031 18.478V16.112C145.545 16.084 145.079 15.9907 144.631 15.832C144.183 15.664 143.786 15.4307 143.441 15.132C143.095 14.824 142.82 14.4553 142.615 14.026C142.409 13.5873 142.307 13.088 142.307 12.528C142.307 11.968 142.409 11.4733 142.615 11.044C142.82 10.6053 143.095 10.2367 143.441 9.938C143.786 9.63 144.183 9.39667 144.631 9.238C145.079 9.07 145.545 8.972 146.031 8.944V7.208H147.907V8.944C148.392 8.972 148.859 9.07 149.307 9.238C149.755 9.39667 150.151 9.63 150.497 9.938C150.842 10.2367 151.117 10.6053 151.323 11.044C151.528 11.4733 151.631 11.968 151.631 12.528C151.631 13.088 151.528 13.5873 151.323 14.026C151.117 14.4553 150.842 14.824 150.497 15.132C150.151 15.4307 149.755 15.664 149.307 15.832C148.859 15.9907 148.392 16.084 147.907 16.112V18.478H146.031ZM157.081 18.478C157.099 17.9367 157.118 17.3627 157.137 16.756C157.155 16.1587 157.169 15.5707 157.179 14.992C157.197 14.4133 157.211 13.8627 157.221 13.34C157.23 12.8173 157.235 12.3553 157.235 11.954C157.235 11.45 157.174 11.1047 157.053 10.918C156.931 10.7313 156.717 10.638 156.409 10.638C156.166 10.638 155.942 10.722 155.737 10.89C155.541 11.058 155.331 11.31 155.107 11.646V16H153.049V11.184C153.049 10.9133 153.039 10.5867 153.021 10.204C153.002 9.82133 152.96 9.43867 152.895 9.056H154.729L154.869 10.26H154.925C155.223 9.868 155.545 9.54133 155.891 9.28C156.236 9.01867 156.651 8.888 157.137 8.888C157.874 8.888 158.397 9.14 158.705 9.644C159.013 10.1387 159.167 10.82 159.167 11.688V18.478H157.081ZM155.667 7.978L156.143 4.898L158.145 5.234L157.039 8.23L155.667 7.978ZM162.985 18.24L165.799 6.06H167.143L164.329 18.24H162.985ZM170.882 16V14.754L173.71 11.394L170.924 8.118V6.872H177.182V8.608H173.5L175.768 11.338L173.458 14.264H177.56V16H170.882ZM181.536 16.168C181.014 16.168 180.566 16.098 180.192 15.958C179.828 15.8087 179.525 15.6033 179.282 15.342C179.049 15.0807 178.876 14.768 178.764 14.404C178.652 14.04 178.596 13.6387 178.596 13.2C178.596 12.8733 178.606 12.542 178.624 12.206C178.643 11.8607 178.652 11.52 178.652 11.184C178.652 10.9133 178.643 10.5867 178.624 10.204C178.606 9.82133 178.564 9.43867 178.498 9.056H180.486C180.533 9.29867 180.566 9.56467 180.584 9.854C180.603 10.134 180.612 10.4373 180.612 10.764C180.612 11.0627 180.598 11.4593 180.57 11.954C180.542 12.4393 180.528 12.9153 180.528 13.382C180.528 13.7553 180.622 14.0353 180.808 14.222C181.004 14.4087 181.247 14.502 181.536 14.502C181.91 14.502 182.194 14.3387 182.39 14.012C182.586 13.6853 182.684 13.1673 182.684 12.458C182.684 12.01 182.647 11.534 182.572 11.03C182.507 10.526 182.39 9.95667 182.222 9.322L184.21 8.888C184.369 9.448 184.495 10.022 184.588 10.61C184.691 11.1887 184.742 11.772 184.742 12.36C184.742 13.5453 184.467 14.4787 183.916 15.16C183.375 15.832 182.582 16.168 181.536 16.168ZM180.822 7.978L181.298 4.898L183.3 5.234L182.194 8.23L180.822 7.978ZM187.759 16C187.656 15.356 187.516 14.726 187.339 14.11C187.162 13.494 186.961 12.906 186.737 12.346C186.513 11.7767 186.27 11.24 186.009 10.736C185.748 10.2227 185.477 9.756 185.197 9.336L187.297 8.888C187.484 9.20533 187.666 9.57867 187.843 10.008C188.03 10.428 188.202 10.8667 188.361 11.324C188.52 11.772 188.66 12.2247 188.781 12.682C188.902 13.13 189 13.536 189.075 13.9H189.131C189.476 13.1067 189.733 12.304 189.901 11.492C190.069 10.6707 190.186 9.85867 190.251 9.056H192.295C192.192 9.672 192.071 10.26 191.931 10.82C191.791 11.38 191.618 11.9353 191.413 12.486C191.217 13.0367 190.979 13.6013 190.699 14.18C190.428 14.7493 190.102 15.356 189.719 16H187.759ZM196.142 16.168C195.694 16.168 195.274 16.098 194.882 15.958C194.49 15.8087 194.145 15.5987 193.846 15.328C193.557 15.048 193.324 14.712 193.146 14.32C192.978 13.928 192.894 13.48 192.894 12.976C192.894 12.612 192.95 12.2807 193.062 11.982C193.174 11.6833 193.328 11.4173 193.524 11.184C193.72 10.9413 193.944 10.7313 194.196 10.554C194.458 10.3673 194.728 10.2133 195.008 10.092C194.812 9.952 194.626 9.798 194.448 9.63C194.28 9.462 194.126 9.28467 193.986 9.098C193.856 8.902 193.748 8.692 193.664 8.468C193.59 8.244 193.552 7.99667 193.552 7.726C193.552 7.502 193.604 7.28733 193.706 7.082C193.809 6.86733 193.963 6.68533 194.168 6.536C194.383 6.37733 194.649 6.25133 194.966 6.158C195.284 6.06467 195.662 6.018 196.1 6.018C196.604 6.018 197.122 6.074 197.654 6.186C198.186 6.28867 198.695 6.41933 199.18 6.578L198.718 8.104C198.224 7.936 197.752 7.80067 197.304 7.698C196.856 7.59533 196.455 7.544 196.1 7.544C195.876 7.544 195.713 7.58133 195.61 7.656C195.508 7.72133 195.456 7.81 195.456 7.922C195.456 8.04333 195.508 8.16933 195.61 8.3C195.722 8.42133 195.867 8.552 196.044 8.692C196.231 8.832 196.441 8.98133 196.674 9.14C196.908 9.29867 197.155 9.47133 197.416 9.658C197.724 9.882 198.004 10.106 198.256 10.33C198.508 10.554 198.718 10.792 198.886 11.044C199.064 11.296 199.199 11.5713 199.292 11.87C199.386 12.1687 199.432 12.5047 199.432 12.878C199.432 13.3727 199.358 13.8207 199.208 14.222C199.059 14.6233 198.84 14.9687 198.55 15.258C198.27 15.5473 197.925 15.7713 197.514 15.93C197.113 16.0887 196.656 16.168 196.142 16.168ZM196.184 14.502C196.558 14.502 196.861 14.376 197.094 14.124C197.328 13.8627 197.444 13.4427 197.444 12.864C197.444 12.4627 197.342 12.1173 197.136 11.828C196.931 11.5387 196.674 11.2727 196.366 11.03C195.89 11.1607 195.517 11.38 195.246 11.688C194.976 11.996 194.84 12.416 194.84 12.948C194.84 13.452 194.971 13.8393 195.232 14.11C195.503 14.3713 195.82 14.502 196.184 14.502ZM203.742 16.168C203.294 16.168 202.87 16.1213 202.468 16.028C202.076 15.944 201.731 15.8133 201.432 15.636C201.143 15.4587 200.914 15.2347 200.746 14.964C200.578 14.6933 200.494 14.3807 200.494 14.026C200.494 13.55 200.611 13.186 200.844 12.934C201.087 12.6727 201.418 12.486 201.838 12.374V12.318C201.484 12.206 201.218 12.01 201.04 11.73C200.872 11.4407 200.788 11.156 200.788 10.876C200.788 10.5307 200.868 10.232 201.026 9.98C201.194 9.728 201.414 9.52267 201.684 9.364C201.964 9.20533 202.282 9.08867 202.636 9.014C203 8.93 203.378 8.888 203.77 8.888C204.19 8.888 204.606 8.95333 205.016 9.084C205.436 9.20533 205.819 9.378 206.164 9.602L205.408 10.918C204.942 10.61 204.433 10.456 203.882 10.456C203.556 10.456 203.294 10.5213 203.098 10.652C202.902 10.7733 202.804 10.9413 202.804 11.156C202.804 11.5667 203.131 11.772 203.784 11.772C203.934 11.772 204.092 11.7673 204.26 11.758C204.428 11.7487 204.592 11.7347 204.75 11.716V13.186C204.554 13.1673 204.354 13.1533 204.148 13.144C203.943 13.1347 203.747 13.13 203.56 13.13C203.196 13.13 202.93 13.186 202.762 13.298C202.594 13.4007 202.51 13.5733 202.51 13.816C202.51 14.0587 202.627 14.25 202.86 14.39C203.103 14.53 203.462 14.6 203.938 14.6C204.162 14.6 204.41 14.5627 204.68 14.488C204.96 14.4133 205.236 14.2733 205.506 14.068L206.304 15.37C205.856 15.6967 205.427 15.9113 205.016 16.014C204.615 16.1167 204.19 16.168 203.742 16.168ZM210.128 16.168C209.68 16.168 209.255 16.0933 208.854 15.944C208.453 15.7853 208.103 15.5567 207.804 15.258C207.505 14.95 207.267 14.5767 207.09 14.138C206.922 13.6993 206.838 13.1907 206.838 12.612C206.838 12.0147 206.931 11.492 207.118 11.044C207.314 10.596 207.566 10.2273 207.874 9.938C208.191 9.63933 208.551 9.42 208.952 9.28C209.363 9.13067 209.787 9.056 210.226 9.056H214.188V10.75C214.001 10.7313 213.824 10.7127 213.656 10.694C213.497 10.6753 213.339 10.6613 213.18 10.652C213.031 10.6333 212.877 10.6193 212.718 10.61C212.569 10.6007 212.405 10.596 212.228 10.596V10.652C212.573 10.848 212.839 11.1467 213.026 11.548C213.213 11.94 213.306 12.402 213.306 12.934C213.306 13.438 213.227 13.8907 213.068 14.292C212.909 14.684 212.69 15.02 212.41 15.3C212.13 15.58 211.794 15.7947 211.402 15.944C211.019 16.0933 210.595 16.168 210.128 16.168ZM210.156 14.502C210.529 14.502 210.819 14.348 211.024 14.04C211.239 13.732 211.346 13.2933 211.346 12.724C211.346 12.4533 211.318 12.1967 211.262 11.954C211.215 11.7113 211.141 11.5013 211.038 11.324C210.935 11.1373 210.809 10.9927 210.66 10.89C210.52 10.778 210.352 10.722 210.156 10.722C209.783 10.722 209.489 10.8713 209.274 11.17C209.059 11.4593 208.952 11.94 208.952 12.612C208.952 13.2187 209.059 13.6853 209.274 14.012C209.489 14.3387 209.783 14.502 210.156 14.502ZM219.301 18.478C219.32 17.9367 219.339 17.3627 219.357 16.756C219.376 16.1587 219.39 15.5707 219.399 14.992C219.418 14.4133 219.432 13.8627 219.441 13.34C219.451 12.8173 219.455 12.3553 219.455 11.954C219.455 11.45 219.395 11.1047 219.273 10.918C219.152 10.7313 218.937 10.638 218.629 10.638C218.387 10.638 218.163 10.722 217.957 10.89C217.761 11.058 217.551 11.31 217.327 11.646V16H215.269V11.184C215.269 10.9133 215.26 10.5867 215.241 10.204C215.223 9.82133 215.181 9.43867 215.115 9.056H216.949L217.089 10.26H217.145C217.444 9.868 217.766 9.54133 218.111 9.28C218.457 9.01867 218.872 8.888 219.357 8.888C220.095 8.888 220.617 9.14 220.925 9.644C221.233 10.1387 221.387 10.82 221.387 11.688V18.478H219.301Z" fill="#002868"/>
<path fill-rule="evenodd" clip-rule="evenodd" d="M82 7C82 4.2 84.2 2 87 2C89.8 2 92 4.2 92 7C92 9.8 89.8 12 87 12C84.2 12 82 9.8 82 7ZM96 19V21C96 21.6 95.6 22 95 22C94.4 22 94 21.6 94 21V19C94 17.3 92.7 16 91 16H83C81.3 16 80 17.3 80 19V21C80 21.6 79.6 22 79 22C78.4 22 78 21.6 78 21V19C78 16.2 80.2 14 83 14H91C93.8 14 96 16.2 96 19ZM87 10C85.3 10 84 8.7 84 7C84 5.3 85.3 4 87 4C88.7 4 90 5.3 90 7C90 8.7 88.7 10 87 10Z" fill="black"/>
<mask id="mask0" mask-type="alpha" maskUnits="userSpaceOnUse" x="78" y="2" width="18" height="20">
<path fill-rule="evenodd" clip-rule="evenodd" d="M82 7C82 4.2 84.2 2 87 2C89.8 2 92 4.2 92 7C92 9.8 89.8 12 87 12C84.2 12 82 9.8 82 7ZM96 19V21C96 21.6 95.6 22 95 22C94.4 22 94 21.6 94 21V19C94 17.3 92.7 16 91 16H83C81.3 16 80 17.3 80 19V21C80 21.6 79.6 22 79 22C78.4 22 78 21.6 78 21V19C78 16.2 80.2 14 83 14H91C93.8 14 96 16.2 96 19ZM87 10C85.3 10 84 8.7 84 7C84 5.3 85.3 4 87 4C88.7 4 90 5.3 90 7C90 8.7 88.7 10 87 10Z" fill="white"/>
</mask>
<g mask="url(#mask0)">
<path fill-rule="evenodd" clip-rule="evenodd" d="M75 0H99V24H75V0Z" fill="#002868"/>
</g>
</svg>
